<?xml version="1.0" encoding="UTF-8"?>
<svg version="1.1" xmlns="http://www.w3.org/2000/svg" width="398" height="118">
<path d="M0 0 C131.34 0 262.68 0 398 0 C398 38.94 398 77.88 398 118 C266.66 118 135.32 118 0 118 C0 79.06 0 40.12 0 0 Z " fill="#FDFDFD" transform="translate(0,0)"/>
<path d="M0 0 C1.69921875 1.2421875 1.69921875 1.2421875 3 3 C3.44771287 8.19736247 2.10166513 12.81949482 -1 17 C-1.66 16.67 -2.32 16.34 -3 16 C-3 12.37 -3 8.74 -3 5 C-6.22662558 5.70820798 -6.22662558 5.70820798 -7.5625 8.6875 C-9.87360737 14.47743214 -10.27559782 20.85536504 -11 27 C-8.08030787 26.4082517 -5.16486413 25.80221445 -2.25 25.1875 C-1.425 25.02185547 -0.6 24.85621094 0.25 24.68554688 C4.63204341 23.74906179 7.46738803 22.8552422 11 20 C11.99 20.33 12.98 20.66 14 21 C13.57144524 24.51414907 12.91226157 27.19302455 11.4375 30.4375 C9.90088188 34.24564056 9.75121984 36.93659077 10 41 C13.5693555 41.93319929 15.44037848 42.23702508 18.88671875 40.77734375 C25.14224957 36.668062 28.54149798 33.99224405 30.68359375 26.66015625 C30.93238281 25.84417969 31.18117188 25.02820313 31.4375 24.1875 C31.74494141 23.03314453 31.74494141 23.03314453 32.05859375 21.85546875 C33 20 33 20 35.03515625 19.17578125 C35.68355469 19.11777344 36.33195313 19.05976562 37 19 C37.33 19.33 37.66 19.66 38 20 C37.52983015 24.8872518 36.40209553 29.2586604 34.8203125 33.89453125 C34.60688202 34.52679123 34.39345154 35.15905121 34.17355347 35.81047058 C33.49642437 37.81314399 32.81114452 39.81289958 32.125 41.8125 C31.44937511 43.79651245 30.7755298 45.78110924 30.10345459 47.7663269 C29.45724125 49.6718562 28.80533329 51.57545127 28.15332031 53.47900391 C26.88106884 57.36308747 25.81414801 61.27368516 24.86669922 65.2487793 C24 67 24 67 21.97314453 67.81958008 C21.32200684 67.87911865 20.67086914 67.93865723 20 68 C19.67 67.67 19.34 67.34 19 67 C19.46647123 61.38047945 21.06197765 56.45764097 23 51.1875 C23.27328125 50.42501953 23.5465625 49.66253906 23.828125 48.87695312 C25.8139881 43.37202381 25.8139881 43.37202381 27 41 C26.05640625 41.63228516 26.05640625 41.63228516 25.09375 42.27734375 C19.68464352 45.73949775 15.5263168 48.33184662 9 48 C6 46 6 46 4 43 C3.29742376 37.68049421 4.57167741 33.08839921 6 28 C5.03578125 28.2165625 4.0715625 28.433125 3.078125 28.65625 C1.81484375 28.9346875 0.5515625 29.213125 -0.75 29.5 C-2.00296875 29.7784375 -3.2559375 30.056875 -4.546875 30.34375 C-8 31 -8 31 -12 31 C-11.9175 32.258125 -11.835 33.51625 -11.75 34.8125 C-11.76552041 40.22912454 -12.60404833 45.38581459 -13.625 50.6875 C-13.76518555 51.49485596 -13.90537109 52.30221191 -14.04980469 53.1340332 C-15.23300459 58.88412497 -17.36960311 63.23076628 -22 67 C-25.25 67.5625 -25.25 67.5625 -28 67 C-28.66 66.34 -29.32 65.68 -30 65 C-30 63.68 -30 62.36 -30 61 C-28.3603125 61.1546875 -28.3603125 61.1546875 -26.6875 61.3125 C-24.8621875 61.1578125 -24.8621875 61.1578125 -23 61 C-17.14091639 53.33068065 -17.67339466 42.21752837 -18 33 C-18.56847656 33.65226562 -19.13695312 34.30453125 -19.72265625 34.9765625 C-33.59233129 50.67546012 -33.59233129 50.67546012 -40.9375 51.375 C-43.79880004 51.49628825 -44.79862068 51.14745808 -47.14453125 49.4296875 C-49.54423618 46.28733704 -50.0330354 43.62160884 -50.75 39.75 C-50.99234375 38.48671875 -51.2346875 37.2234375 -51.484375 35.921875 C-51.65453125 34.95765625 -51.8246875 33.9934375 -52 33 C-52.92039062 33.51949219 -53.84078125 34.03898437 -54.7890625 34.57421875 C-76.41505001 46.57010855 -76.41505001 46.57010855 -86 46 C-86.99 44.02 -86.99 44.02 -88 42 C-85.05605603 40.06803677 -82.34300957 38.76936466 -79 37.75 C-75.04133225 36.31798193 -73.07525755 34.37770417 -70.83203125 30.8515625 C-69.6277147 28.17153413 -69.64871078 25.88057161 -70 23 C-73.36762226 22.73871896 -75.40166284 22.64299216 -78.34375 24.3984375 C-89.46372729 34.59175002 -91.86335663 43.17811397 -92.82666016 57.80224609 C-93.07068555 60.89621315 -93.51986026 63.93449245 -94 67 C-95.65 66.67 -97.3 66.34 -99 66 C-99.08891371 58.87702427 -99.04497694 52.05359432 -98 45 C-97.91378303 40.99851823 -97.94086079 37.00175295 -98 33 C-98.65355469 33.70576172 -98.65355469 33.70576172 -99.3203125 34.42578125 C-102.89238989 38.16022579 -106.00153892 41.29839623 -111 43 C-114.375 42.6875 -114.375 42.6875 -117 42 C-117.66 39.69 -118.32 37.38 -119 35 C-119.66 35 -120.32 35 -121 35 C-121.226875 35.53625 -121.45375 36.0725 -121.6875 36.625 C-124.69018685 42.05843334 -128.47456455 46.12216903 -134 49 C-136.98064131 48.93068276 -138.3792256 48.4655808 -140.75 46.6875 C-142.1510239 44.79611774 -142.49353359 43.27440936 -143 41 C-143.56847656 41.433125 -144.13695312 41.86625 -144.72265625 42.3125 C-148.47153332 45.01619765 -151.20930516 46.85741568 -155.8125 47.6875 C-159.95192855 46.79468208 -160.69710743 45.49224655 -163 42 C-163.94140625 38.703125 -163.94140625 38.703125 -164.5625 35.25 C-165.11110683 31.85942758 -165.11110683 31.85942758 -166 29 C-166.99 28.67 -167.98 28.34 -169 28 C-173.15955168 31.8995797 -176.6248854 36.20461984 -180.1328125 40.6953125 C-183.16556759 44.43867129 -183.16556759 44.43867129 -185 46 C-187.125 45.8125 -187.125 45.8125 -189 45 C-192.36652189 38.26695621 -189.19530579 28.7067599 -187 22 C-186.34 21.01 -185.68 20.02 -185 19 C-184.01 19 -183.02 19 -182 19 C-182.58490879 25.14154225 -183.54066252 31.00679849 -185 37 C-181.02745649 33.15159847 -177.38992682 29.07173193 -173.76953125 24.890625 C-171.21205849 22.15813755 -170.33127344 22.01774679 -166.5 21.8125 C-163 22 -163 22 -161 24 C-160.40032689 26.52780864 -159.88572526 29.00832751 -159.4375 31.5625 C-158.97452997 36.15395889 -158.97452997 36.15395889 -157 40 C-153.98046105 40.51553104 -151.83304141 40.45001412 -149.10546875 38.9765625 C-142.79739464 34.4725727 -138.03174382 28.61215913 -133.08203125 22.71484375 C-132.17517578 21.64943359 -132.17517578 21.64943359 -131.25 20.5625 C-130.71890625 19.92441406 -130.1878125 19.28632812 -129.640625 18.62890625 C-126.74547608 15.75443696 -124.48498084 15.05105062 -120.4375 14.625 C-117 15 -117 15 -115.29296875 16.55078125 C-113.48018884 19.98465739 -113.74685055 22.70670927 -113.875 26.5625 C-114.09273797 31.84740143 -114.09273797 31.84740143 -113 37 C-106.85863892 36.4581152 -103.12039975 32.40542559 -99.25 28 C-97.24500296 25.32667062 -96.02084409 23.15533629 -95 20 C-93.02 20.495 -93.02 20.495 -91 21 C-91 24.63 -91 28.26 -91 32 C-90.154375 30.80375 -89.30875 29.6075 -88.4375 28.375 C-85.04321273 23.83584624 -81.13153648 19.56576824 -76 17 C-72.94324384 16.59397926 -70.04993964 16.51490905 -67 17 C-64.875 19.0625 -64.875 19.0625 -64 22 C-64.10859078 27.75531129 -66.25522177 32.08493201 -69 37 C-66.93408908 35.92318552 -64.87240822 34.8382534 -62.8125 33.75 C-61.66394531 33.14671875 -60.51539063 32.5434375 -59.33203125 31.921875 C-55.20196971 29.53970586 -51.85647845 27.47314294 -49.4375 23.3125 C-48 21 -48 21 -45.91015625 20.35546875 C-45.27980469 20.23816406 -44.64945313 20.12085937 -44 20 C-44.00523682 20.65597168 -44.01047363 21.31194336 -44.01586914 21.98779297 C-44.03661272 24.95018563 -44.04965176 27.91256303 -44.0625 30.875 C-44.07087891 31.90753906 -44.07925781 32.94007812 -44.08789062 34.00390625 C-44.09111328 34.99003906 -44.09433594 35.97617188 -44.09765625 36.9921875 C-44.10289307 37.90339355 -44.10812988 38.81459961 -44.11352539 39.75341797 C-44.14885565 42.03687509 -44.14885565 42.03687509 -43 44 C-33.85227631 44 -28.99297257 38.83325366 -22.65625 32.75 C-18.15752919 28.05568264 -15.8763023 24.41798866 -15 18 C-13.90746072 11.46776515 -12.18234064 6.25473568 -8 1 C-5.20129973 -0.39935013 -3.09501208 -0.25265405 0 0 Z " fill="#0C0C0C" transform="translate(344,30)"/>
<path d="M0 0 C0.2475 0.639375 0.495 1.27875 0.75 1.9375 C1.78813195 4.19635114 1.78813195 4.19635114 4 4.5 C6 5 6 5 7.25 7.0625 C7.4975 7.701875 7.745 8.34125 8 9 C8.78375 8.938125 9.5675 8.87625 10.375 8.8125 C11.24125 8.874375 12.1075 8.93625 13 9 C13.66 9.99 14.32 10.98 15 12 C17.35946809 12.65826889 17.35946809 12.65826889 20 12 C22.74661149 9.89674092 22.74661149 9.89674092 25.25 7.125 C26.12140625 6.22007813 26.9928125 5.31515625 27.890625 4.3828125 C30.00982812 2.19534734 30.00982812 2.19534734 31 0 C31.66 0 32.32 0 33 0 C37.32205334 9.10718381 37.44424132 17.16499086 37 27 C36.23429687 26.33742188 35.46859375 25.67484375 34.6796875 24.9921875 C32.17108607 22.68967338 32.17108607 22.68967338 29.125 23.125 C27.578125 23.558125 27.578125 23.558125 26 24 C25.360625 24.17402344 24.72125 24.34804688 24.0625 24.52734375 C22.3684838 24.99524742 20.68333024 25.49500093 19 26 C18.57589844 25.49210937 18.15179688 24.98421875 17.71484375 24.4609375 C13.77219118 19.83373646 9.70899866 15.84408054 5 12 C4.4769108 14.20645403 4.4769108 14.20645403 5 17 C6.78068761 19.57745173 8.94997977 21.69299537 11.1875 23.875 C11.76564453 24.48085938 12.34378906 25.08671875 12.93945312 25.7109375 C14.5616471 27.32396654 16.08672305 28.74546791 18 30 C20.70238866 30.12883901 20.70238866 30.12883901 23 29 C29.40909091 26.75119617 29.40909091 26.75119617 32.375 28 C34.59916199 30.73743014 34.79109868 32.47325415 35 36 C34.07497081 38.83381958 33.14439775 41.18590136 31.8125 43.8125 C31.45953857 44.51592529 31.10657715 45.21935059 30.74291992 45.9440918 C26.42049077 53.9121644 20.0833327 58.13563992 12.26171875 62.54296875 C9.7435553 63.9523469 9.7435553 63.9523469 8 67 C5.14599609 67.38818359 5.14599609 67.38818359 1.5234375 67.3984375 C-0.44302734 67.40423828 -0.44302734 67.40423828 -2.44921875 67.41015625 C-3.1354834 67.40387207 -3.82174805 67.39758789 -4.52880859 67.39111328 C-6.59671751 67.37521741 -8.66262506 67.39086759 -10.73046875 67.41015625 C-17.84118397 67.38930371 -23.56486079 67.12658434 -30 64 C-30 63.34 -30 62.68 -30 62 C-28.4609375 60.51953125 -28.4609375 60.51953125 -26.375 58.8125 C-23.58440173 56.42482233 -20.91953527 54.02229851 -18.4375 51.3125 C-17.69306641 50.50232422 -17.69306641 50.50232422 -16.93359375 49.67578125 C-15.7920979 48.00409064 -15.7920979 48.00409064 -16.22265625 45.85546875 C-16.84411551 43.80621346 -16.84411551 43.80621346 -19 43 C-19.66 42.67 -20.32 42.34 -21 42 C-21.33333333 40.66666667 -21.66666667 39.33333333 -22 38 C-23.9837767 36.71563266 -23.9837767 36.71563266 -26 36 C-26 34.35 -26 32.7 -26 31 C-27.32 30.34 -28.64 29.68 -30 29 C-24.55260917 21.59154848 -19.91559869 17.93171305 -11 16 C-8.14969142 14.19480457 -8.00806518 13.03288111 -7.1875 9.6875 C-5.67297444 4.98449957 -3.64743517 3.25097483 0 0 Z " fill="#4058A0" transform="translate(64,39)"/>
<path d="M0 0 C-0.309375 0.515625 -0.61875 1.03125 -0.9375 1.5625 C-2.83088531 5.90614866 -3 10.30792129 -3 15 C-4.81358651 17.26551583 -6.57505284 19.22428389 -8.625 21.25 C-9.40810547 22.08144531 -9.40810547 22.08144531 -10.20703125 22.9296875 C-14.21213217 26.94467756 -14.21213217 26.94467756 -18.2265625 27.2265625 C-19.14179687 27.15179688 -20.05703125 27.07703125 -21 27 C-25.12951177 30.19098637 -26.62903877 33.04344788 -28 38 C-28.9375 40.3125 -28.9375 40.3125 -30 42 C-31.485 42.495 -31.485 42.495 -33 43 C-34.71413635 44.61780472 -36.37476781 46.29290426 -38 48 C-39.72667051 49.77326732 -41.4558107 51.54413346 -43.1875 53.3125 C-44.04730469 54.19550781 -44.90710938 55.07851562 -45.79296875 55.98828125 C-48 58 -48 58 -50 58 C-48.3705398 51.3568161 -48.3705398 51.3568161 -46.3125 49.375 C-45.6628125 48.694375 -45.6628125 48.694375 -45 48 C-45.23043864 45.34533951 -45.23043864 45.34533951 -46 43 C-49.11920338 43.33420036 -49.95474254 43.94788534 -52.0625 46.375 C-52.701875 47.24125 -53.34125 48.1075 -54 49 C-54.53625 49.474375 -55.0725 49.94875 -55.625 50.4375 C-57.60329233 52.68555946 -58.17904346 55.15822737 -59 58 C-59.33 58 -59.66 58 -60 58 C-63.36054635 44.06602733 -60.97310311 31.4855253 -53.8125 19.3125 C-46.79820632 8.88022423 -36.77281586 1.8512119 -24.5625 -1.375 C-16.39831051 -2.83235987 -7.81512857 -2.90795482 0 0 Z " fill="#20317B" transform="translate(68,14)"/>
<path d="M0 0 C5.28956044 0.88159341 8.16772076 3.76312823 11.75 7.625 C13.35133169 10.82766338 13.24367263 14.14900371 12.75 17.625 C11 20.0625 11 20.0625 8.75 22.625 C7.27411645 25.56679491 5.99716786 28.58005293 4.75 31.625 C4.09 31.625 3.43 31.625 2.75 31.625 C2.50894531 32.18703125 2.26789063 32.7490625 2.01953125 33.328125 C0.48593622 36.10275232 -1.35348761 38.10287297 -3.5625 40.375 C-4.32175781 41.17421875 -5.08101562 41.9734375 -5.86328125 42.796875 C-8.25 44.625 -8.25 44.625 -10.94921875 44.98046875 C-13.76248519 44.54582147 -14.32391675 43.63133672 -16.25 41.625 C-18.85611077 40.90302838 -18.85611077 40.90302838 -21.25 40.625 C-21.58 39.305 -21.91 37.985 -22.25 36.625 C-23.9 36.295 -25.55 35.965 -27.25 35.625 C-27.745 34.14 -27.745 34.14 -28.25 32.625 C-28.84167969 33.28628906 -29.43335938 33.94757812 -30.04296875 34.62890625 C-31.22826172 35.89541016 -31.22826172 35.89541016 -32.4375 37.1875 C-33.21480469 38.03441406 -33.99210937 38.88132813 -34.79296875 39.75390625 C-37.25 41.625 -37.25 41.625 -40.05078125 41.40234375 C-40.77652344 41.14582031 -41.50226562 40.88929687 -42.25 40.625 C-42.65602811 36.1548649 -42.65602811 36.1548649 -40.85717773 33.80737305 C-40.22239502 33.25605713 -39.5876123 32.70474121 -38.93359375 32.13671875 C-38.25232422 31.51216797 -37.57105469 30.88761719 -36.86914062 30.24414062 C-35.41831517 28.95956912 -33.95996843 27.68344109 -32.49414062 26.41601562 C-28.62531663 23.13806038 -28.62531663 23.13806038 -27.14892578 18.57275391 C-27.27638184 17.89519043 -27.40383789 17.21762695 -27.53515625 16.51953125 C-28.25 12.625 -28.25 12.625 -26.84375 9.23046875 C-23.34420229 5.71510983 -20.54939046 5.43862481 -15.75 4.9375 C-9.59350794 4.20060239 -5.61119238 1.07907546 0 0 Z " fill="#FCC5AA" transform="translate(92.25,7.375)"/>
<path d="M0 0 C-0.66 2.64 -1.32 5.28 -2 8 C1.04386724 8.08226668 3.07175348 7.97608217 6 7 C5.67783137 9.89951766 5.19371255 11.72557388 3.5 14.125 C0.50254402 16.37309199 -2.31993483 17.14927455 -5.87890625 18.20703125 C-8.60320114 19.22550614 -10.1213705 20.82078978 -12 23 C-12.66 23 -13.32 23 -14 23 C-14.226875 23.556875 -14.45375 24.11375 -14.6875 24.6875 C-16.36424552 27.64176591 -18.54576685 29.66847851 -21 32 C-23.13855245 33.86779347 -23.13855245 33.86779347 -23.9375 36.4375 C-25 39 -25 39 -26.625 40.3125 C-28.36694978 42.45034746 -28.08000888 43.3021595 -27.9375 46 C-27.86402344 46.680625 -27.79054688 47.36125 -27.71484375 48.0625 C-28 50 -28 50 -30.00390625 51.75 C-30.66261719 52.1625 -31.32132813 52.575 -32 53 C-42.94415603 39.02760662 -42.94415603 39.02760662 -44 32 C-42.8560447 26.16861808 -39.59354945 21.69724712 -35 18 C-32.1875 16.6875 -32.1875 16.6875 -30 16 C-29.34 16.66 -28.68 17.32 -28 18 C-28.32421685 21.99867453 -29.86409101 24.66798197 -32 28 C-32.67725021 29.32798885 -33.34582296 30.66049463 -34 32 C-30.07982773 28.63700957 -26.21226796 25.2829586 -22.625 21.5625 C-20 19 -20 19 -18 19 C-17.67 18.01 -17.34 17.02 -17 16 C-16.01 16 -15.02 16 -14 16 C-13.80857422 15.15115234 -13.80857422 15.15115234 -13.61328125 14.28515625 C-12.31674006 9.45409512 -10.51203626 4.60958698 -7.0625 0.9375 C-4.56837357 -0.19619383 -2.70976157 -0.22581346 0 0 Z " fill="#ACE8F6" transform="translate(52,40)"/>
<path d="M0 0 C7.64478578 3.25185692 12.95362881 7.29137631 18.625 13.3125 C19.34300781 14.05306641 20.06101562 14.79363281 20.80078125 15.55664062 C22.54602279 17.36005688 24.27836156 19.17408789 26 21 C25.7819873 21.54487061 25.56397461 22.08974121 25.33935547 22.65112305 C25.05979004 23.36824463 24.78022461 24.08536621 24.4921875 24.82421875 C24.2122998 25.53408936 23.93241211 26.24395996 23.64404297 26.9753418 C22.78049658 29.69004619 22.94600094 31.36500234 24 34 C24.9793879 35.02019573 25.97895449 36.02149805 27 37 C27.75 39.125 27.75 39.125 28 41 C25.55519579 43.44480421 19.21694911 42.23393411 15.9375 42.25 C14.91205078 42.270625 13.88660156 42.29125 12.83007812 42.3125 C6.48241845 42.34498962 1.7864628 41.63968291 -4 39 C-4 38.34 -4 37.68 -4 37 C-2.4609375 35.51953125 -2.4609375 35.51953125 -0.375 33.8125 C2.41559827 31.42482233 5.08046473 29.02229851 7.5625 26.3125 C8.05878906 25.77238281 8.55507813 25.23226562 9.06640625 24.67578125 C10.2079021 23.00409064 10.2079021 23.00409064 9.77734375 20.85546875 C9.15588449 18.80621346 9.15588449 18.80621346 7 18 C6.34 17.67 5.68 17.34 5 17 C4.66666667 15.66666667 4.33333333 14.33333333 4 13 C2.0162233 11.71563266 2.0162233 11.71563266 0 11 C0 9.35 0 7.7 0 6 C-1.32 5.34 -2.64 4.68 -4 4 C-2.68 2.68 -1.36 1.36 0 0 Z " fill="#1F307A" transform="translate(38,64)"/>
<path d="M0 0 C2.171875 1.62890625 2.171875 1.62890625 3.109375 4.12890625 C3.171875 6.62890625 3.171875 6.62890625 1.171875 9.62890625 C0.511875 9.62890625 -0.148125 9.62890625 -0.828125 9.62890625 C-0.951875 8.98953125 -1.075625 8.35015625 -1.203125 7.69140625 C-1.409375 7.01078125 -1.615625 6.33015625 -1.828125 5.62890625 C-6.7467377 3.1695999 -14.32409374 3.80174878 -19.4296875 5.48828125 C-21.73472099 6.64498897 -23.98611569 7.78689694 -25.828125 9.62890625 C-26.05557387 13.05028403 -26.05557387 13.05028403 -24.828125 16.62890625 C-19.13012022 20.4275761 -12.48545974 22.18941817 -6 24.28515625 C-2.73917867 25.66658794 -1.03242265 26.88814099 1.171875 29.62890625 C1.859375 32.37890625 1.859375 32.37890625 1.171875 35.62890625 C-3.76355441 43.56851008 -10.6025608 46.61560255 -19.328125 48.94140625 C-23.86620537 49.84264189 -28.33631083 49.8064643 -32.828125 48.62890625 C-33.488125 47.96890625 -34.148125 47.30890625 -34.828125 46.62890625 C-34.453125 44.50390625 -34.453125 44.50390625 -33.828125 42.62890625 C-32.78914063 42.68691406 -31.75015625 42.74492188 -30.6796875 42.8046875 C-21.99403039 43.14135704 -15.16157742 42.9310969 -7.828125 37.62890625 C-6.80117374 36.65660428 -5.79101055 35.66469166 -4.828125 34.62890625 C-5.32781447 32.63432266 -5.32781447 32.63432266 -6.828125 30.62890625 C-9.23668612 29.64251508 -11.46385814 28.88470737 -13.953125 28.19140625 C-21.14257895 25.97999044 -27.38646801 24.03242811 -31.890625 17.75390625 C-33.07666528 13.80043864 -33.04984976 11.58154519 -31.828125 7.62890625 C-24.37461625 -0.58906493 -10.34954956 -5.01753024 0 0 Z " fill="#0A0A0A" transform="translate(142.828125,34.37109375)"/>
<path d="M0 0 C3.98536323 0.4981704 5.07526306 1.33383672 7.5 4.4375 C6.943125 4.50066406 6.38625 4.56382813 5.8125 4.62890625 C-4.0594649 6.21308981 -9.53213297 13.40991685 -16.23046875 20.28125 C-16.83319611 20.89866562 -17.43592346 21.51608124 -18.05691528 22.15220642 C-20.57914031 24.73872037 -23.10105335 27.32491749 -25.59936523 29.93457031 C-27.44195689 31.85558525 -29.30286195 33.75712205 -31.16796875 35.65625 C-31.72953171 36.25191772 -32.29109467 36.84758545 -32.86967468 37.46130371 C-34.48901367 39.09179688 -34.48901367 39.09179688 -37.5 41.4375 C-40.39575195 41.29882812 -40.39575195 41.29882812 -42.5 40.4375 C-42.90602811 35.9673649 -42.90602811 35.9673649 -41.10717773 33.61987305 C-40.47239502 33.06855713 -39.8376123 32.51724121 -39.18359375 31.94921875 C-38.50232422 31.32466797 -37.82105469 30.70011719 -37.11914062 30.05664062 C-35.66831517 28.77206912 -34.20996843 27.49594109 -32.74414062 26.22851562 C-28.87531663 22.95056038 -28.87531663 22.95056038 -27.39892578 18.38525391 C-27.52638184 17.70769043 -27.65383789 17.03012695 -27.78515625 16.33203125 C-28.5 12.4375 -28.5 12.4375 -27.09375 9.04296875 C-23.59420229 5.52760983 -20.79939046 5.25112481 -16 4.75 C-9.92387252 4.02272158 -5.55535345 0.69441918 0 0 Z " fill="#FDAB7C" transform="translate(92.5,7.5625)"/>
<path d="M0 0 C2.68576054 1.71716646 4.7602715 3.74187707 7.01806641 5.99365234 C7.94361328 6.91662109 8.86916016 7.83958984 9.82275391 8.79052734 C10.29970703 9.27166992 10.77666016 9.7528125 11.26806641 10.24853516 C12.72424418 11.71542012 14.19077875 13.17133374 15.65869141 14.62646484 C16.58166016 15.55201172 17.50462891 16.47755859 18.45556641 17.43115234 C19.72134521 18.70031494 19.72134521 18.70031494 21.01269531 19.99511719 C23.38256337 22.65824465 25.16254278 24.73693633 25.02978516 28.38427734 C23.70549691 31.18930984 21.92900438 32.13694223 19.29150391 33.72021484 C18.41880859 34.26419922 17.54611328 34.80818359 16.64697266 35.36865234 C14.10400391 36.34521484 14.10400391 36.34521484 11.94775391 35.59521484 C11.03509766 34.97646484 11.03509766 34.97646484 10.10400391 34.34521484 C9.21712891 33.89146484 8.33025391 33.43771484 7.41650391 32.97021484 C5.10400391 31.34521484 5.10400391 31.34521484 4.16650391 29.47021484 C4.08548438 26.7155509 5.05389424 24.87783228 6.10400391 22.34521484 C6.40958034 19.45005175 6.5215336 17.93684744 4.81884766 15.52416992 C4.23232422 14.97656006 3.64580078 14.4289502 3.04150391 13.86474609 C2.40986328 13.25824219 1.77822266 12.65173828 1.12744141 12.02685547 C0.12583984 11.10163086 0.12583984 11.10163086 -0.89599609 10.15771484 C-2.21263079 8.91860401 -3.52535454 7.67531992 -4.83349609 6.42724609 C-5.42001953 5.88302002 -6.00654297 5.33879395 -6.61083984 4.77807617 C-7.89599609 3.34521484 -7.89599609 3.34521484 -7.89599609 1.34521484 C-2.49848799 -0.86285665 -2.49848799 -0.86285665 0 0 Z " fill="#1E2F7A" transform="translate(60.89599609375,65.65478515625)"/>
<path d="M0 0 C1.0828125 0.37125 1.0828125 0.37125 2.1875 0.75 C2.084375 1.513125 1.98125 2.27625 1.875 3.0625 C1.978125 3.949375 2.08125 4.83625 2.1875 5.75 C4.65076712 7.3946674 4.65076712 7.3946674 7.1875 8.75 C7.1875 9.74 7.1875 10.73 7.1875 11.75 C9.63246043 13.46711243 9.63246043 13.46711243 12.1875 14.75 C12.10183603 17.662575 11.60839045 19.31798024 9.5625 21.41796875 C7.80358625 22.91091772 6.02436981 24.35436262 4.1875 25.75 C2.8675 24.1 1.5475 22.45 0.1875 20.75 C-2.80470268 22.11370299 -5.10276529 23.69908083 -7.5625 25.875 C-8.17609375 26.41382812 -8.7896875 26.95265625 -9.421875 27.5078125 C-9.88078125 27.91773437 -10.3396875 28.32765625 -10.8125 28.75 C-11.8025 28.09 -12.7925 27.43 -13.8125 26.75 C-13.8125 26.09 -13.8125 25.43 -13.8125 24.75 C-14.4725 24.75 -15.1325 24.75 -15.8125 24.75 C-15.4825 24.255 -15.1525 23.76 -14.8125 23.25 C-13.78119258 20.67173144 -13.78601182 19.45658873 -13.9375 16.75 C-14.04768463 13.02438207 -14.04768463 13.02438207 -11.9375 10.5625 C-11.23625 9.964375 -10.535 9.36625 -9.8125 8.75 C-9.3484375 7.5125 -9.3484375 7.5125 -8.875 6.25 C-7.11023629 2.09761481 -4.63831672 -0.41229482 0 0 Z " fill="#E2F5F9" transform="translate(36.8125,69.25)"/>
<path d="M0 0 C4.71200227 3.92666856 8.93312797 7.96823338 13.0078125 12.55859375 C14.93272178 14.27922476 14.93272178 14.27922476 17.51953125 13.80078125 C19.54381469 13.14727242 21.55531462 12.45427557 23.5625 11.75 C27 11 27 11 29.375 12 C31.57018878 14.70177081 31.76403101 16.53498165 32 20 C30.85546875 23.17578125 30.85546875 23.17578125 29.1875 26.3125 C28.64480469 27.36050781 28.10210937 28.40851563 27.54296875 29.48828125 C26 32 26 32 24 33 C23.67 32.34 23.34 31.68 23 31 C22.25919189 30.72752441 21.51838379 30.45504883 20.75512695 30.17431641 C17.36407607 28.72895046 15.49702879 26.8374649 12.91796875 24.2109375 C12.45892654 23.74765045 11.99988434 23.2843634 11.52693176 22.80703735 C10.07321301 21.33662664 8.63031957 19.85609895 7.1875 18.375 C6.19926633 17.37170722 5.21034079 16.36909543 4.22070312 15.3671875 C1.80691149 12.91807208 -0.59959731 10.46222788 -3 8 C-2.690625 7.236875 -2.38125 6.47375 -2.0625 5.6875 C-1.32106407 3.81210323 -0.63771783 1.91315348 0 0 Z " fill="#1D317B" transform="translate(67,55)"/>
<path d="M0 0 C0.66 0 1.32 0 2 0 C6.32205334 9.10718381 6.44424132 17.16499086 6 27 C5.23429687 26.33742188 4.46859375 25.67484375 3.6796875 24.9921875 C1.17108607 22.68967338 1.17108607 22.68967338 -1.875 23.125 C-3.421875 23.558125 -3.421875 23.558125 -5 24 C-5.9590625 24.26103516 -5.9590625 24.26103516 -6.9375 24.52734375 C-8.6315162 24.99524742 -10.31666976 25.49500093 -12 26 C-12.42410156 25.50371094 -12.84820312 25.00742188 -13.28515625 24.49609375 C-16.36752233 20.92596865 -19.45129531 17.55527244 -22.9375 14.375 C-25.54997239 11.83833596 -25.95510178 11.3527717 -26.4375 7.5625 C-26.293125 6.716875 -26.14875 5.87125 -26 5 C-25.608125 5.66 -25.21625 6.32 -24.8125 7 C-23.9153125 7.99 -23.9153125 7.99 -23 9 C-21.33382885 9.04063832 -19.66611905 9.042721 -18 9 C-17.01 10.485 -17.01 10.485 -16 12 C-13.64053191 12.65826889 -13.64053191 12.65826889 -11 12 C-8.25338851 9.89674092 -8.25338851 9.89674092 -5.75 7.125 C-4.87859375 6.22007813 -4.0071875 5.31515625 -3.109375 4.3828125 C-0.99017188 2.19534734 -0.99017188 2.19534734 0 0 Z " fill="#1F307A" transform="translate(95,39)"/>
<path d="M0 0 C1.134375 0.495 2.26875 0.99 3.4375 1.5 C2.50475891 2.62894876 1.56609878 3.75300876 0.625 4.875 C0.10292969 5.50148438 -0.41914062 6.12796875 -0.95703125 6.7734375 C-3.57226461 9.5859269 -5.2241086 10.46374378 -9.0625 10.875 C-12.53512276 11.16877416 -12.53512276 11.16877416 -14.375 13.1875 C-15.76247595 15.88942686 -16.65717376 18.60295604 -17.5625 21.5 C-18.5 23.8125 -18.5 23.8125 -19.5625 25.5 C-20.5525 25.83 -21.5425 26.16 -22.5625 26.5 C-23.2225 27.16 -23.8825 27.82 -24.5625 28.5 C-27.87138672 23.26092937 -28.55905369 18.53520363 -27.5625 12.5 C-22.64419008 0.67986422 -11.96665935 -4.48484036 0 0 Z " fill="#40579F" transform="translate(57.5625,30.5)"/>
<path d="M0 0 C3.85593074 1.58561638 6.33216291 4.06509954 9.25 7 C10.14203125 7.886875 11.0340625 8.77375 11.953125 9.6875 C14 12 14 12 14 14 C14.67546875 13.69964844 15.3509375 13.39929688 16.046875 13.08984375 C16.93890625 12.70957031 17.8309375 12.32929687 18.75 11.9375 C19.63171875 11.55464844 20.5134375 11.17179687 21.421875 10.77734375 C24.19173742 9.94218826 25.35833089 9.9088758 28 11 C29.35432675 12.31200404 30.68733482 13.64631404 32 15 C34.13309192 16.23512079 34.13309192 16.23512079 36 17 C36.042721 18.66611905 36.04063832 20.33382885 36 22 C35 23 35 23 32.4375 23.0625 C31.633125 23.041875 30.82875 23.02125 30 23 C29.505 20.525 29.505 20.525 29 18 C26.36145467 16.67324944 26.36145467 16.67324944 23 16 C20.64018187 16.93578995 18.30368736 17.93347808 16 19 C11.13833783 18.44397586 8.49774225 15.04941267 5.1875 11.75 C4.57712891 11.17636719 3.96675781 10.60273437 3.33789062 10.01171875 C1.71215739 8.40248112 0.26509823 6.90658083 -1 5 C-0.88671875 2.078125 -0.88671875 2.078125 0 0 Z " fill="#E9B845" transform="translate(69,51)"/>
<path d="M0 0 C3.14442277 -0.55432102 5.22830939 -0.52055218 7.91748047 1.29345703 C10.01877795 3.13732619 11.98164002 5.06522624 13.9375 7.0625 C14.63423828 7.71927734 15.33097656 8.37605469 16.04882812 9.05273438 C17.95191379 10.95957736 19.57365258 12.71359483 21 15 C20.9765625 18.78125 20.9765625 18.78125 20 22 C19.814375 23.134375 19.62875 24.26875 19.4375 25.4375 C19.2209375 26.7059375 19.2209375 26.7059375 19 28 C21.64 29.98 24.28 31.96 27 34 C26.34 35.32 25.68 36.64 25 38 C22.69 38 20.38 38 18 38 C17.731875 37.071875 17.46375 36.14375 17.1875 35.1875 C16.29235115 32.02401689 16.29235115 32.02401689 14.3125 30.5 C13.879375 30.005 13.44625 29.51 13 29 C13.2827467 24.75879951 14.64311134 21.00365912 16 17 C15.27296875 16.28082397 15.27296875 16.28082397 14.53125 15.54711914 C12.35159362 13.38815902 10.17575495 11.22539154 8 9.0625 C7.236875 8.30775391 6.47375 7.55300781 5.6875 6.77539062 C4.965625 6.05673828 4.24375 5.33808594 3.5 4.59765625 C2.8296875 3.93258057 2.159375 3.26750488 1.46875 2.58227539 C0 1 0 1 0 0 Z " fill="#27A6FA" transform="translate(47,68)"/>
<path d="M0 0 C-0.13246895 8.21307463 -2.8546132 12.71605952 -8 19 C-8.46148437 19.57492188 -8.92296875 20.14984375 -9.3984375 20.7421875 C-11.49197179 23.10241405 -12.63678477 23.95964275 -15.8125 24.3125 C-16.534375 24.209375 -17.25625 24.10625 -18 24 C-17.84179366 15.61506399 -13.94455818 9.31668631 -8.34375 3.1875 C-5.32672112 0.47833121 -4.17321565 0 0 0 Z " fill="#F2F2F2" transform="translate(225,49)"/>
<path d="M0 0 C6.15078795 5.10692054 11.68574656 10.6628908 17.21484375 16.4296875 C18.22611328 17.46222656 18.22611328 17.46222656 19.2578125 18.515625 C19.8573877 19.13727539 20.45696289 19.75892578 21.07470703 20.39941406 C23.25228985 22.20974033 25.38382412 22.96676215 28 24 C28.8125 26.125 28.8125 26.125 29 28 C27.35 29.32 25.7 30.64 24 32 C22.1570466 30.33256597 20.9231602 28.86492703 19.6862793 26.69067383 C17.84315919 23.74974047 15.80024331 21.57348862 13.33203125 19.13671875 C12.43935547 18.25048828 11.54667969 17.36425781 10.62695312 16.45117188 C9.23379883 15.0831543 9.23379883 15.0831543 7.8125 13.6875 C6.8621685 12.7472112 5.912294 11.80646029 4.96289062 10.86523438 C2.64637877 8.57224041 0.32532199 6.28405348 -2 4 C-1.34 2.68 -0.68 1.36 0 0 Z " fill="#03C0F8" transform="translate(63,62)"/>
<path d="M0 0 C1.32 0.66 2.64 1.32 4 2 C3.42724319 6.00929766 2.09160006 8.56977589 0 12 C-0.2475 12.969375 -0.495 13.93875 -0.75 14.9375 C-2.48320728 19.18385784 -5.40069439 21.28608507 -9 24 C-12.32219096 17.47426775 -12.32219096 17.47426775 -11.484375 13.640625 C-8.93715289 7.61624254 -5.45828181 3.63885454 0 0 Z " fill="#29A4F8" transform="translate(20,56)"/>
<path d="M0 0 C-0.66 2.64 -1.32 5.28 -2 8 C1.04386724 8.08226668 3.07175348 7.97608217 6 7 C5.66602151 10.00580638 5.15988669 11.77861843 3.375 14.25 C0.30384286 16.51295789 -2.24568878 16.71120683 -6 17 C-5.34 16.01 -4.68 15.02 -4 14 C-4.30840599 11.84725052 -4.30840599 11.84725052 -5 10 C-6.98 10 -8.96 10 -11 10 C-10.74028905 6.19090609 -10.41701925 4.44018699 -7.75 1.625 C-4.80867557 -0.11305534 -3.3450389 -0.38229016 0 0 Z " fill="#0FBCF4" transform="translate(52,40)"/>
<path d="M0 0 C2.46800047 1.15173355 4.04783565 2.04783565 6 4 C5.80688882 6.8966677 4.97235629 8.03210237 3.0625 10.25 C1 12 1 12 -1 12 C-1.33 12.66 -1.66 13.32 -2 14 C-2 13.34 -2 12.68 -2 12 C-4.475 11.01 -4.475 11.01 -7 10 C-6.42424336 6.64749299 -5.40693737 5.06181371 -2.9375 2.75 C-2.38964844 2.22921875 -1.84179688 1.7084375 -1.27734375 1.171875 C-0.64505859 0.59179688 -0.64505859 0.59179688 0 0 Z " fill="#E3F4F9" transform="translate(35,89)"/>
<path d="M0 0 C3.80850575 2.28510345 6.09140717 3.87595585 9 7 C8.34 8.32 7.68 9.64 7 11 C5.35 9.35 3.7 7.7 2 6 C-0.99220268 7.36370299 -3.29026529 8.94908083 -5.75 11.125 C-6.36359375 11.66382812 -6.9771875 12.20265625 -7.609375 12.7578125 C-8.06828125 13.16773437 -8.5271875 13.57765625 -9 14 C-9.66 13.01 -10.32 12.02 -11 11 C-7.37 7.37 -3.74 3.74 0 0 Z " fill="#47E9DE" transform="translate(35,84)"/>
<path d="M0 0 C0.66 0.66 1.32 1.32 2 2 C1.80944634 4.85830484 0.97144591 6.03426491 -0.875 8.25 C-3 10 -3 10 -6 10 C-7.75 8.75 -7.75 8.75 -9 7 C-8.84545794 4.52732712 -8.18391306 3.25747829 -6.75 1.25 C-4.37253996 -0.44818574 -2.85828587 -0.36644691 0 0 Z " fill="#E4F7FB" transform="translate(47,49)"/>
<path d="M0 0 C-0.64 3.712 -0.64 3.712 -2.5625 5.25 C-4.36180874 7.44046281 -4.08886334 8.23509639 -3.9375 11 C-3.83984375 13.125 -3.83984375 13.125 -4 15 C-6 17 -6 17 -8 18 C-9.29422845 14.11731466 -9.83140252 10.01844549 -9 6 C-6.58172109 2.37258164 -4.46192731 0 0 0 Z " fill="#17C3FB" transform="translate(28,75)"/>
<path d="M0 0 C0.99 0.66 1.98 1.32 3 2 C5.62531524 2.16713569 5.62531524 2.16713569 8 2 C8 5 8 5 6.46875 6.60546875 C5.8190625 7.12753906 5.169375 7.64960937 4.5 8.1875 C3.8503125 8.71730469 3.200625 9.24710938 2.53125 9.79296875 C2.0259375 10.19128906 1.520625 10.58960937 1 11 C0.44172391 9.73637508 -0.09612097 8.4637081 -0.625 7.1875 C-0.92664063 6.47980469 -1.22828125 5.77210937 -1.5390625 5.04296875 C-1.69117188 4.36878906 -1.84328125 3.69460937 -2 3 C-1.34 2.01 -0.68 1.02 0 0 Z " fill="#5BD1F6" transform="translate(10,69)"/>
<path d="M0 0 C1.32 0.66 2.64 1.32 4 2 C3.64950425 5.24208567 3.43778819 6.61527704 0.9375 8.8125 C0.298125 9.204375 -0.34125 9.59625 -1 10 C-1.33 9.34 -1.66 8.68 -2 8 C-2.99 7.67 -3.98 7.34 -5 7 C-3.75023244 3.34683329 -3.32901247 2.21934164 0 0 Z " fill="#A9E2F2" transform="translate(20,56)"/>
<path d="M0 0 C0.78375 0.04125 1.5675 0.0825 2.375 0.125 C3 2.5 3 2.5 3.375 5.125 C1.375 7.125 1.375 7.125 -2.25 7.25 C-3.36375 7.20875 -4.4775 7.1675 -5.625 7.125 C-4.53409091 0.21590909 -4.53409091 0.21590909 0 0 Z " fill="#101010" transform="translate(302.625,29.875)"/>
<path d="M0 0 C1.67542976 0.28604898 3.34385343 0.61781233 5 1 C5.33 2.32 5.66 3.64 6 5 C4.35 6.32 2.7 7.64 1 9 C-0.5625 7.8125 -0.5625 7.8125 -2 6 C-1.57894737 1.57894737 -1.57894737 1.57894737 0 0 Z " fill="#67F0E7" transform="translate(86,85)"/>
<path d="M0 0 C2.375 0.3125 2.375 0.3125 5 1 C5.66 1.99 6.32 2.98 7 4 C6.01 5.485 6.01 5.485 5 7 C1.375 7.1875 1.375 7.1875 -2 7 C-1.34 4.69 -0.68 2.38 0 0 Z " fill="#5ED4F8" transform="translate(67,99)"/>
<path d="M0 0 C1.2065625 0.0309375 1.2065625 0.0309375 2.4375 0.0625 C3.0975 1.3825 3.7575 2.7025 4.4375 4.0625 C3.4475 5.5475 3.4475 5.5475 2.4375 7.0625 C-0.125 7.3125 -0.125 7.3125 -2.5625 7.0625 C-3.5625 6.0625 -3.5625 6.0625 -3.6875 3.5625 C-3.51717518 0.15600356 -3.41884482 0.08338646 0 0 Z " fill="#08BFFA" transform="translate(37.5625,55.9375)"/>
<path d="M0 0 C2.5 0.125 2.5 0.125 3.5 1.125 C3.625 3.625 3.625 3.625 3.5 6.125 C2.5 7.125 2.5 7.125 0 7.25 C-2.5 7.125 -2.5 7.125 -3.5 6.125 C-3.625 3.625 -3.625 3.625 -3.5 1.125 C-2.5 0.125 -2.5 0.125 0 0 Z " fill="#FCF059" transform="translate(101.5,66.875)"/>
<path d="M0 0 C1.65 0 3.3 0 5 0 C5.33 1.32 5.66 2.64 6 4 C4.68 4.99 3.36 5.98 2 7 C0 5 0 5 -0.125 2.375 C-0.08375 1.59125 -0.0425 0.8075 0 0 Z " fill="#EC935D" transform="translate(64,20)"/>
</svg>
